<?xml version="1.0" encoding="utf-8"?>
<!-- Generator: Adobe Illustrator 24.1.2, SVG Export Plug-In . SVG Version: 6.00 Build 0)  -->
<svg version="1.1" xmlns="http://www.w3.org/2000/svg" xmlns:xlink="http://www.w3.org/1999/xlink" x="0px" y="0px"
	 viewBox="0 0 512 512" style="enable-background:new 0 0 512 512;" xml:space="preserve">
<style type="text/css">
	.st0{fill:#F2E827;}
	.st1{fill:#0AC10A;}
</style>
<g id="Capa_1">
	<g>
		<path class="st0" d="M353.7,34.5c1.6,0,2.9-1.6,2.9-3.7l0.5-25.2c0-2.1-1.2-3.8-2.8-3.8c-1.6,0-2.9,1.6-2.9,3.7L351,30.7
			C350.9,32.8,352.2,34.5,353.7,34.5L353.7,34.5z"/>
		<path class="st0" d="M300.6,60.2c1.1,1.5,2.9,1.5,4,0.1c1.1-1.4,1.2-3.8,0.1-5.3L291.5,37c-1.1-1.5-2.9-1.5-4-0.1
			c-1.1,1.4-1.2,3.8-0.1,5.3L300.6,60.2z"/>
		<path class="st0" d="M280.5,120.6l-19-0.3c-1.6,0-2.9,1.6-2.9,3.7s1.2,3.8,2.8,3.8l19,0.3c1.6,0,2.9-1.6,2.9-3.7
			C283.3,122.3,282,120.6,280.5,120.6z"/>
		<path class="st0" d="M298.2,189.1l-13.8,17.6c-1.1,1.4-1.2,3.8-0.1,5.3c1.1,1.5,2.9,1.5,4,0.1l13.8-17.6c1.1-1.4,1.2-3.8,0.1-5.3
			C301.1,187.7,299.4,187.7,298.2,189.1z"/>
		<path class="st0" d="M403.5,191c-1.1-1.5-2.9-1.5-4-0.1c-1.1,1.4-1.2,3.8-0.1,5.3l13.1,18.1c1.1,1.5,2.9,1.5,4,0.1
			c1.1-1.4,1.2-3.8,0.1-5.3L403.5,191z"/>
		<path class="st0" d="M442.8,123.6l-19-0.3c-1.6,0-2.9,1.6-2.9,3.7c0,2.1,1.2,3.8,2.8,3.8l19,0.3c1.6,0,2.9-1.6,2.9-3.7
			C445.6,125.3,444.3,123.6,442.8,123.6z"/>
		<path class="st0" d="M415.8,39.2L402,56.8c-1.1,1.4-1.2,3.8-0.1,5.3c1.1,1.5,2.9,1.5,4,0.1l13.8-17.6c1.1-1.4,1.2-3.8,0.1-5.3
			C418.7,37.8,416.9,37.8,415.8,39.2z"/>
		<path d="M407.9,119.1c0.8-41.3-23.6-75.3-54.4-75.9c-10.8-0.2-21.3,3.7-30.4,11.4c-8.9,7.4-16.1,18-20.8,30.6
			c-0.7,1.9-0.1,4.1,1.3,5c1.4,0.9,3.1,0.1,3.8-1.7c8.7-23.3,26.7-38.1,46-37.8c27.6,0.5,49.6,31.2,48.9,68.3
			c-0.3,17.7-5.7,34.3-15,46.7c-5.4,7.2-10,14.1-11.4,23.8l-49.3-0.9c-1.3-10.2-6.4-17.4-10.9-23.8c-9.1-12.9-13.9-29.8-13.6-47.7
			c0.1-4.4,0.5-8.8,1.2-13.1c0.3-2-0.6-4-2.2-4.4c-1.5-0.4-3,0.9-3.4,2.9c-0.8,4.7-1.2,9.6-1.3,14.5c-0.4,19.8,5,38.6,15.1,52.9
			c5.8,8.2,9.9,14.8,9.7,24.2c0,0,0,0.1,0,0.1l-0.2,21.9c-0.1,7.1,2.6,13.4,6.8,16.9l-0.1,4.1c-0.2,10.3,6,18.8,13.8,18.9l17.3,0.3
			c7.8,0.1,14.3-8.1,14.5-18.4l0.1-4.1c4.3-3.4,7.3-9.6,7.5-16.7c0,0,0.4-24.4,0.4-24.7c0.7-8.7,4.8-14.7,10-21.7
			C401.7,157.1,407.6,138.7,407.9,119.1L407.9,119.1z M367.7,238c-0.1,6.2-4,11.1-8.7,11.1l-17.3-0.3c-4.7-0.1-8.4-5.2-8.3-11.4
			l0-1.4c0.7,0.1,1.4,0.2,2.1,0.2l30.1,0.5c0.7,0,1.4,0,2.1-0.2L367.7,238z M365.8,229.3l-30.1-0.5c-5.1-0.1-9.1-5.6-9-12.4l0-0.2
			l28.6,0.5c1.6,0,2.9-1.6,2.9-3.7c0-2.1-1.2-3.8-2.8-3.8l-28.6-0.5l0.2-12.5l48.5,0.9l-0.1,12.5l-6.8-0.1c-1.6,0-2.9,1.6-2.9,3.7
			c0,2.1,1.2,3.8,2.8,3.8l6.8,0.1l0,0.2C375.1,224,370.9,229.4,365.8,229.3z"/>
		<path class="st1" d="M370.5,118.9c-1,1.6-0.8,4,0.4,5.3c1.2,1.3,3,1,4-0.6l5.8-9.4c1.5-2.5,2.2-5.6,2-8.8c-0.2-3.2-1.4-6-3.3-8
			c-1.9-2-4.2-2.9-6.6-2.5c-2.4,0.4-4.6,1.9-6.1,4.4L347.9,130l-10.2-15.5c-3.3-5-9-5.4-12.7-1.1c-1.8,2.1-2.9,5-3.1,8.2
			c-0.2,3.2,0.6,6.3,2.2,8.7l17.2,26.2c3.5,5.5,10.5,5.3,13.8-0.4l11.5-18.8c1-1.6,0.8-4-0.4-5.3c-1.2-1.3-3-1-4,0.6l-11.5,18.8
			c-1.3,2.2-3.9,2.2-5.2,0.2l-17.2-26.2c-1.2-1.9-1.1-4.7,0.4-6.3c1.4-1.6,3.6-1.5,4.8,0.4l12.4,18.9c1.1,1.7,3.3,1.7,4.3-0.1
			l20.9-34.2c1.1-1.9,3.4-2.2,4.8-0.7c1.4,1.5,1.7,4.5,0.5,6.3L370.5,118.9z"/>
	</g>
	<path class="st0" d="M360.8,103.5"/>
	<path d="M252.2,125.3"/>
</g>
<g id="Layer_2">
	<desc>Created with Sketch.</desc>
	<path id="Shape_7_" d="M44.6,314.7c2.4,1.6,4.9,3.1,7.5,4.3c3.1,1.6,8.3,4.3,8.7,6.1c0.5,2.5,0.2,5-0.8,7.3c-1.1,2.3-2.2,4.3-3.2,6
		c-2.6,4.7-7.1,12.5-0.4,17.9c1.6,1.4,4.2,3.5,6.7,5.4c-1.8,3.2-2.6,6.8-2.3,10.4c0.4,2.8,1.9,5.4,4.2,7.1c1.6,1.2,3.4,2.2,5,3.1
		c4.2,2.4,5.9,3.5,6.5,5.8c0.4,2.9,0.1,5.9-0.8,8.7c-0.4,1.9-0.8,3.7-1.1,5.7c-0.7,6.6,0.1,13.2,2.4,19.4
		c3.2,11.5,13.6,19.5,25.5,19.7c2,0,3.9-0.2,5.9-0.6c20.6-4.9,40.8-10.9,60.7-18.2c16.2,9.5,26.5,38.5,29.1,49.3
		c0.8,3.2,3.7,5.5,7,5.5l180.8-0.5c2.3,0,4.4-1.1,5.8-2.9c1.4-1.8,1.7-4.2,1.1-6.4c-1.8-4.9-4.2-9.5-7.3-13.7
		c-1.7-2.5-3.3-5.1-4.7-7.8c-3.3-6.6-6-13.5-8.1-20.5c-4.1-13.9-7-28.2-8.5-42.6c-2.5-21.5,0.7-43.4,9.5-63.2
		c5.3-11,11.9-21.4,19.6-30.9c4.3-5.8,8.8-11.9,12.8-18.2c6.9-10.8,11.9-22.6,14.8-35.1c0.8-3.8-1.6-7.6-5.4-8.5s-7.7,1.5-8.6,5.3
		c-2.5,10.9-6.9,21.2-13,30.6c-3.7,5.9-8.1,11.7-12.2,17.4c-8.3,10.4-15.4,21.7-21.2,33.7c-9.8,22.2-13.4,46.6-10.6,70.7
		c1.7,15.3,4.7,30.4,9.1,45.2c2.4,7.7,5.4,15.3,8.9,22.6c1.6,3.2,3.5,6.4,5.6,9.4l0.5,0.7l-163.4,0.5c-4.8-17.1-13.5-32.8-25.4-46
		l6.5-2.3c4.8-1.7,8.5-3,10.4-3.6c30.8-9.8,46.3-23.9,45.8-41.8c0-1.9-0.8-3.7-2.2-5.1c-1.4-1.3-3.2-2-5.2-1.9c-4,0.1-7.1,3.4-7,7.4
		c0.2,7.4-5.9,18.2-35.8,27.7c-2,0.6-5.8,1.9-10.7,3.7c-5.4,1.9-12.1,4.2-19.6,6.8h-0.1c-20.3,7.4-40.9,13.7-61.9,18.7
		c-6.7,1.3-13.2-3-14.8-9.6c-1.5-4.1-2.2-8.4-1.8-12.8c0.2-1.4,0.5-3,0.9-4.4c1.5-5,1.8-10.4,0.7-15.5c-2.1-6.6-6.9-12-13.3-14.7
		l-1.5-0.9c0.8-1.6,1.7-3.1,2.8-4.5c1.2-1.5,1.7-3.5,1.5-5.4c-0.3-1.9-1.3-3.7-2.9-4.8c-1.7-1.3-5.8-4.3-8.8-6.7
		c0.3-0.6,0.7-1.3,1.1-1.9c1.1-2,2.4-4.3,3.7-7c2.3-5,3-10.7,1.9-16.1c-1.7-8.8-10.1-13.1-16.3-16.2c-2.1-1-4.1-2.1-5.9-3.4
		c-1.5-1-3-2.2-4.3-3.5c0-1.1,1.2-3.7,6.7-10.4C68,272.2,79,254.3,88.1,235.3c1.7-3,2.6-6.3,2.8-9.7c-0.8-7.2-4.6-13.8-10.6-18
		c-2.9-2.7-5.7-5.2-6-7.3c0.1-1.8,0.5-3.5,1.2-5.1c1.2-3.1,2.5-6.1,3.9-9.1c3-6.3,5.4-12.8,7.2-19.5c1.7-8.1,3.8-16,6.5-23.8
		c5.7-15.7,14.5-30,25.8-42.2c13.8-14.6,35.4-24.9,64.5-30.7c22.3-4.9,44.8-8.1,67.6-9.7c7.6-0.4,15.3-0.2,22.9,0.5
		c2.6,0.2,5.1-0.9,6.6-3s1.7-4.8,0.7-7.2c-1.1-2.3-3.3-3.9-5.9-4.2c-8.3-0.8-16.7-0.9-25-0.5c-23.4,1.6-46.7,5-69.7,10
		c-32.5,6.5-56.1,17.9-72.2,34.9c-12.7,13.6-22.5,29.6-28.9,47.1c-2.9,8.5-5.3,17.2-7.1,26c-1.5,5.7-3.6,11.2-6.2,16.4
		c-1.4,3.3-2.9,6.6-4.2,10c-1.6,3.8-2.3,8-2,12.1c1.5,6.4,5.2,12.1,10.5,16c3.5,3.2,5.9,5.5,5.9,7.5c-0.3,1.1-0.7,2.1-1.2,3.1
		C66.6,246.9,56,264.1,43.7,280c-5.2,6.4-10.7,13.8-9.5,21.2C35.7,306.9,39.5,311.8,44.6,314.7z"/>
	<path id="Shape_6_" d="M131.1,138.6c4.7-11.2,11.9-21.4,21.3-30.1c10.3-9.4,28.2-16.4,53.1-20.6c4.2-0.7,6.9-4.2,6.1-7.9
		c-0.8-3.6-4.9-6-9.1-5.3c-28.1,4.8-48.8,13.1-61.3,24.5c-10.8,10-19.2,21.8-24.5,34.7c-2.6,6.7-4.7,13.5-6.4,20.4l15.1,2.9
		C126.8,151,128.8,144.7,131.1,138.6z"/>
	<circle id="Oval_2_" cx="95.7" cy="194.3" r="7.8"/>
</g>
</svg>
